#!OML:ASF G:\JayActor3\Patient Classification 1\Patient 1\Session 6\male.ASF
:FULLY-SPECIFIED
:DEGREES
947
root 4.01314 16.219 -22.2996 2.97048 -45.0304 -0.41366
lowerback -6.58886 -5.25864 -2.39445
upperback -1.93245 -6.97189 3.7831
thorax 2.43407 -3.51684 4.61515
lowerneck -0.705234 6.37312 9.91512
upperneck -1.04884 8.44251 -10.4767
head 0.684947 4.19074 -4.61177
rclavicle 4.42793e-014 -6.36111e-015
rhumerus -40.7751 -12.4337 -69.6487
rradius 35.2246
rwrist -6.14237
rhand -39.2411 -12.714
rfingers 7.12502
rthumb -12.2362 -42.336
lclavicle 4.42793e-014 -6.36111e-015
lhumerus -41.0171 13.1901 85.1061
lradius 52.09
lwrist 35.2785
lhand -25.6218 13.8145
lfingers 7.12502
lthumb 0.911066 43.7923
rfemur -35.6337 19.4961 15.7746
rtibia 34.8139
rfoot -8.40102 -3.66962
rtoes -6.61435
lfemur 20.0854 11.6888 -23.4403
ltibia 2.54444e-014
lfoot -0.875591 -19.4481
ltoes 12.9673
948
root 3.93722 16.2328 -22.2336 3.14454 -44.6656 -0.528651
lowerback -6.73787 -5.32286 -2.35966
upperback -2.0142 -7.06417 3.94692
thorax 2.45806 -3.56381 4.74616
lowerneck -0.69015 6.36342 9.89661
upperneck -1.03812 8.4321 -10.5602
head 0.687737 4.18582 -4.63472
rclavicle 1.58034e-014 -5.24792e-014
rhumerus -40.6964 -12.5461 -69.2487
rradius 34.5289
rwrist -5.80527
rhand -38.9756 -12.9399
rfingers 7.12502
rthumb -11.9802 -42.577
lclavicle 1.58034e-014 -5.24792e-014
lhumerus -41.0622 13.1196 85.4786
lradius 51.0265
lwrist 34.8555
lhand -25.6939 13.5492
lfingers 7.12502
lthumb 0.841409 43.5273
rfemur -35.385 19.4611 15.9326
rtibia 34.9759
rfoot -8.38776 -3.42689
rtoes -5.4239
lfemur 20.3244 11.3069 -23.273
ltibia -9.54166e-015
lfoot -0.41676 -19.2484
ltoes 12.4815
949
root 3.85968 16.2475 -22.1664 3.31646 -44.2837 -0.657402
lowerback -6.88918 -5.39675 -2.32871
upperback -2.09688 -7.16962 4.11759
thorax 2.48547 -3.61754 4.88462
lowerneck -0.66423 6.35512 9.86971
upperneck -1.02854 8.42444 -10.6378
head 0.688068 4.18259 -4.65487
rclavicle -4.52235e-014 -1.11319e-014
rhumerus -40.6426 -12.6438 -68.8368
rradius 33.8972
rwrist -5.46403
rhand -38.6449 -13.0537
rfingers 7.12502
rthumb -11.6612 -42.7092
lclavicle -4.52235e-014 -1.11319e-014
lhumerus -41.1253 13.0377 85.8574
lradius 49.9695
lwrist 34.4672
lhand -25.7761 13.3077
lfingers 7.12502
lthumb 0.76195 43.2861
rfemur -35.0951 19.4412 16.1214
rtibia 35.1343
rfoot -8.49846 -3.20244
rtoes -4.40588
lfemur 20.5781 10.9077 -23.0846
ltibia -3.49861e-014
lfoot 0.0660893 -19.0567
ltoes 11.9302
950
root 3.78095 16.2638 -22.0986 3.48315 -43.8696 -0.787992
lowerback -7.03472 -5.48455 -2.31004
upperback -2.18791 -7.293 4.29067
thorax 2.50521 -3.68015 5.03115
lowerneck -0.623631 6.34679 9.84477
upperneck -1.01781 8.41802 -10.7128
head 0.686416 4.18041 -4.67501
rclavicle -2.38045e-014 -1.51076e-014
rhumerus -40.6089 -12.7268 -68.4193
rradius 33.3253
rwrist -5.12466
rhand -38.1767 -13.2188
rfingers 7.12502
rthumb -11.2096 -42.8993
lclavicle -2.38045e-014 -1.51076e-014
lhumerus -41.2106 12.9382 86.2369
lradius 48.9208
lwrist 34.0926
lhand -25.8591 13.0721
lfingers 7.12502
lthumb 0.681851 43.0508
rfemur -34.7691 19.416 16.3284
rtibia 35.2832
rfoot -8.70573 -3.10551
rtoes -3.60104
lfemur 20.8378 10.4755 -22.8839
ltibia -3.49861e-014
lfoot 0.585138 -18.8673
ltoes 11.3534
951
root 3.70136 16.2814 -22.0299 3.64737 -43.4274 -0.935131
lowerback -7.16625 -5.58317 -2.29224
upperback -2.28486 -7.43118 4.47094
thorax 2.51433 -3.75008 5.18538
lowerneck -0.56337 6.33756 9.81751
upperneck -1.01382 8.41156 -10.787
head 0.679426 4.17879 -4.69534
rclavicle -1.80894e-014 0
rhumerus -40.5883 -12.7985 -67.9918
rradius 32.7966
rwrist -4.78638
rhand -37.603 -13.3118
rfingers 7.12502
rthumb -10.6563 -43.0216
lclavicle -1.80894e-014 0
lhumerus -41.3123 12.8375 86.6165
lradius 47.8762
lwrist 33.7034
lhand -25.9015 12.8635
lfingers 7.12502
lthumb 0.640909 42.8423
rfemur -34.3998 19.3647 16.5724
rtibia 35.4175
rfoot -8.96493 -3.17789
rtoes -3.02764
lfemur 21.1091 10.0162 -22.6622
ltibia 2.54444e-014
lfoot 1.12968 -18.6757
ltoes 10.6945
952
root 3.62082 16.2997 -21.9597 3.80688 -42.98 -1.12026
lowerback -7.27825 -5.67809 -2.24768
upperback -2.37982 -7.56666 4.65296
thorax 2.51194 -3.81848 5.32857
lowerneck -0.488332 6.32065 9.79542
upperneck -1.01056 8.39586 -10.8552
head 0.66877 4.17302 -4.71558
rclavicle 4.47266e-014 1.59028e-015
rhumerus -40.5837 -12.8686 -67.5586
rradius 32.3065
rwrist -4.46246
rhand -36.9022 -13.3465
rfingers 7.12502
rthumb -9.98025 -43.0899
lclavicle 4.47266e-014 1.59028e-015
lhumerus -41.4276 12.7293 86.9882
lradius 46.8296
lwrist 33.2774
lhand -25.8913 12.6527
lfingers 7.12502
lthumb 0.650741 42.6314
rfemur -33.9698 19.2671 16.8858
rtibia 35.5319
rfoot -9.22265 -3.38574
rtoes -2.66295
lfemur 21.416 9.55291 -22.3985
ltibia 3.18055e-015
lfoot 1.69853 -18.485
ltoes 10.0191
953
root 3.53967 16.3182 -21.8878 3.9607 -42.5349 -1.34426
lowerback -7.36906 -5.76534 -2.17041
upperback -2.47163 -7.69447 4.83462
thorax 2.4965 -3.8828 5.45605
lowerneck -0.402419 6.29528 9.77981
upperneck -1.00413 8.36979 -10.9175
head 0.656154 4.16241 -4.73575
rclavicle 1.12115e-013 7.95139e-015
rhumerus -40.5964 -12.9504 -67.1186
rradius 31.8465
rwrist -4.13816
rhand -36.0915 -13.3396
rfingers 7.12502
rthumb -9.19809 -43.119
lclavicle 1.12115e-013 7.95139e-015
lhumerus -41.5542 12.6202 87.3439
lradius 45.7775
lwrist 32.7971
lhand -25.8219 12.4708
lfingers 7.12502
lthumb 0.7178 42.4493
rfemur -33.4844 19.0997 17.2738
rtibia 35.6261
rfoot -9.44753 -3.65663
rtoes -2.41573
lfemur 21.7581 9.09427 -22.0968
ltibia -2.54444e-014
lfoot 2.27088 -18.289
ltoes 9.29759
954
root 3.45825 16.3366 -21.8144 4.11279 -42.0957 -1.60831
lowerback -7.44209 -5.84624 -2.05792
upperback -2.55902 -7.81676 5.02022
thorax 2.47155 -3.94428 5.57035
lowerneck -0.312986 6.26593 9.75815
upperneck -0.992714 8.33885 -10.9688
head 0.64312 4.14951 -4.75181
rclavicle 7.22582e-014 -5.08889e-014
rhumerus -40.6095 -13.027 -66.6758
rradius 31.4111
rwrist -3.82254
rhand -35.1819 -13.3897
rfingers 7.12502
rthumb -8.3203 -43.2059
lclavicle 7.22582e-014 -5.08889e-014
lhumerus -41.6887 12.5282 87.6823
lradius 44.7179
lwrist 32.2464
lhand -25.6653 12.3134
lfingers 7.12502
lthumb 0.868993 42.2914
rfemur -32.9539 18.8453 17.7368
rtibia 35.7013
rfoot -9.62546 -3.91198
rtoes -2.30326
lfemur 22.1299 8.64362 -21.7577
ltibia -9.22361e-014
lfoot 2.86045 -18.0882
ltoes 8.57714
955
root 3.37691 16.3546 -21.74 4.26298 -41.6573 -1.88826
lowerback -7.5052 -5.9275 -1.92947
upperback -2.64766 -7.94081 5.20779
thorax 2.43848 -4.00659 5.67882
lowerneck -0.224907 6.23547 9.72834
upperneck -0.974956 8.30661 -11.0101
head 0.631197 4.13593 -4.7634
rclavicle -4.05521e-014 3.02153e-014
rhumerus -40.6122 -13.0783 -66.2397
rradius 30.988
rwrist -3.52128
rhand -34.2122 -13.4487
rfingers 7.12502
rthumb -7.38438 -43.2998
lclavicle -4.05521e-014 3.02153e-014
lhumerus -41.8295 12.4762 87.993
lradius 43.6525
lwrist 31.6217
lhand -25.4478 12.1892
lfingers 7.12502
lthumb 1.07907 42.1662
rfemur -32.4059 18.5054 18.2426
rtibia 35.7633
rfoot -9.75716 -4.12778
rtoes -2.30273
lfemur 22.5083 8.19512 -21.4056
ltibia 3.81667e-014
lfoot 3.45857 -17.8808
ltoes 7.84906
956
root 3.29556 16.3722 -21.6647 4.41058 -41.2286 -2.16749
lowerback -7.57157 -6.01037 -1.80019
upperback -2.73736 -8.06718 5.39581
thorax 2.40658 -4.07018 5.78681
lowerneck -0.141741 6.20833 9.69135
upperneck -0.951085 8.27872 -11.0459
head 0.621759 4.12438 -4.77176
rclavicle 9.25343e-014 2.38542e-014
rhumerus -40.5978 -13.0913 -65.8213
rradius 30.5874
rwrist -3.23546
rhand -33.1775 -13.5787
rfingers 7.12502
rthumb -6.38556 -43.4624
lclavicle 9.25343e-014 2.38542e-014
lhumerus -41.9767 12.4776 88.2673
lradius 42.5834
lwrist 30.9092
lhand -25.1574 12.0925
lfingers 7.12502
lthumb 1.35957 42.0679
rfemur -31.859 18.1062 18.7643
rtibia 35.8156
rfoot -9.84672 -4.30944
rtoes -2.30813
lfemur 22.8829 7.75581 -21.0523
ltibia 7.31528e-014
lfoot 4.09368 -17.6613
ltoes 7.20811
957
root 3.21362 16.389 -21.589 4.56224 -40.8161 -2.43679
lowerback -7.65947 -6.09492 -1.68487
upperback -2.82791 -8.1951 5.58446
thorax 2.38811 -4.13488 5.90078
lowerneck -0.0680631 6.18699 9.64434
upperneck -0.92184 8.25811 -11.0735
head 0.615402 4.11618 -4.77532
rclavicle -2.37548e-014 6.52014e-014
rhumerus -40.5658 -13.0678 -65.4238
rradius 30.201
rwrist -2.96202
rhand -32.1434 -13.6856
rfingers 7.12502
rthumb -5.38714 -43.5971
lclavicle -2.37548e-014 6.52014e-014
lhumerus -42.128 12.5341 88.5041
lradius 41.5164
lwrist 30.1243
lhand -24.8018 12.0095
lfingers 7.12502
lthumb 1.70295 41.9825
rfemur -31.333 17.6879 19.2796
rtibia 35.8637
rfoot -9.91014 -4.47725
rtoes -2.2525
lfemur 23.2384 7.33275 -20.7115
ltibia 5.40694e-014
lfoot 4.71895 -17.439
ltoes 6.47585
958
root 3.13077 16.4049 -21.513 4.71756 -40.4207 -2.68114
lowerback -7.77781 -6.1771 -1.59331
upperback -2.92264 -8.3181 5.76403
thorax 2.38372 -4.19726 6.01593
lowerneck -0.00601084 6.16601 9.59836
upperneck -0.882804 8.23762 -11.093
head 0.613491 4.10765 -4.776
rclavicle -1.58431e-013 -3.18055e-015
rhumerus -40.5325 -13.0133 -65.0565
rradius 29.8471
rwrist -2.72076
rhand -31.0991 -13.848
rfingers 7.12502
rthumb -4.37881 -43.7827
lclavicle -1.58431e-013 -3.18055e-015
lhumerus -42.2912 12.6056 88.7083
lradius 40.4694
lwrist 29.3147
lhand -24.4386 11.9236
lfingers 7.12502
lthumb 2.05377 41.8935
rfemur -30.8396 17.2856 19.7635
rtibia 35.9094
rfoot -9.96231 -4.64373
rtoes -2.08675
lfemur 23.5683 6.92444 -20.3901
ltibia 3.18055e-015
lfoot 5.36778 -17.2025
ltoes 5.80181
959
root 3.04655 16.4194 -21.4372 4.86302 -40.0392 -2.885
lowerback -7.92446 -6.2627 -1.54715
upperback -3.01891 -8.44244 5.93484
thorax 2.39891 -4.2606 6.14369
lowerneck 0.0589707 6.14889 9.55765
upperneck -0.852896 8.22188 -11.116
head 0.609303 4.10159 -4.77868
rclavicle 1.27222e-013 6.67916e-014
rhumerus -40.4975 -12.9319 -64.7195
rradius 29.5204
rwrist -2.49142
rhand -30.1258 -13.913
rfingers 7.12502
rthumb -3.43897 -43.865
lclavicle 1.27222e-013 6.67916e-014
lhumerus -42.4698 12.6737 88.8958
lradius 39.4643
lwrist 28.5449
lhand -24.1244 11.8443
lfingers 7.12502
lthumb 2.35724 41.811
rfemur -30.3754 16.9233 20.1997
rtibia 35.9555
rfoot -10.0191 -4.81518
rtoes -1.84142
lfemur 23.875 6.52799 -20.1033
ltibia 1.78111e-013
lfoot 6.02148 -16.9547
ltoes 5.07763
960
root 2.96038 16.432 -21.3607 4.99127 -39.6786 -3.0664
lowerback -8.09685 -6.34328 -1.52896
upperback -3.10634 -8.55832 6.09414
thorax 2.4391 -4.32009 6.27226
lowerneck 0.123094 6.12825 9.51501
upperneck -0.832046 8.20058 -11.132
head 0.601633 4.09278 -4.77927
rclavicle -5.71506e-014 -1.74931e-014
rhumerus -40.4696 -12.8349 -64.4098
rradius 29.2194
rwrist -2.27777
rhand -29.2161 -13.8904
rfingers 7.12502
rthumb -2.5604 -43.8547
lclavicle -5.71506e-014 -1.74931e-014
lhumerus -42.6594 12.7304 89.0685
lradius 38.5037
lwrist 27.8267
lhand -23.8812 11.7901
lfingers 7.12502
lthumb 2.59207 41.7541
rfemur -29.9136 16.6143 20.6096
rtibia 36.0023
rfoot -10.0941 -4.98462
rtoes -1.50951
lfemur 24.1871 6.14993 -19.8311
ltibia -9.54166e-015
lfoot 6.70559 -16.6843
ltoes 4.45784
961
root 2.87269 16.4425 -21.2841 5.09793 -39.3449 -3.22529
lowerback -8.27909 -6.41597 -1.53849
upperback -3.18595 -8.66147 6.23893
thorax 2.49345 -4.37338 6.40074
lowerneck 0.199125 6.10329 9.4776
upperneck -0.830264 8.17299 -11.1453
head 0.585876 4.08128 -4.78082
rclavicle -2.44505e-014 -2.22639e-014
rhumerus -40.4542 -12.7273 -64.1329
rradius 28.9506
rwrist -2.07999
rhand -28.3833 -13.8255
rfingers 7.12502
rthumb -1.75608 -43.798
lclavicle -2.44505e-014 -2.22639e-014
lhumerus -42.8566 12.7662 89.2245
lradius 37.5816
lwrist 27.1671
lhand -23.7259 11.737
lfingers 7.12502
lthumb 2.7421 41.6991
rfemur -29.4527 16.3714 20.9923
rtibia 36.0521
rfoot -10.1941 -5.1575
rtoes -1.12981
lfemur 24.5071 5.79624 -19.5745
ltibia -6.67916e-014
lfoot 7.40627 -16.3968
ltoes 3.86068
